<?xml version="1.0" encoding="utf-8"?>
<!-- Generator: Adobe Illustrator 24.0.2, SVG Export Plug-In . SVG Version: 6.00 Build 0)  -->
<svg version="1.1" id="Layer_1" xmlns="http://www.w3.org/2000/svg" xmlns:xlink="http://www.w3.org/1999/xlink" x="0px" y="0px"
	 viewBox="0 0 223 172" style="enable-background:new 0 0 223 172;" xml:space="preserve">
<style type="text/css">
	.st0{display:none;fill:url(#SVGID_1_);}
	.st1{fill:#000080;}
	.st2{fill:none;stroke:#000080;stroke-width:1.4995;stroke-miterlimit:10;}
	.st3{fill:#FF8C00;}
	.st4{fill:#0092FF;}
	.st5{fill:#AAFF00;}
</style>
<g>
	<g>
		<path class="st1" d="M6.92,115.78c0-7.92,6-13.26,13.87-13.26c6.19,0,9.49,3.5,11.18,6.88l-5.69,2.69
			c-0.85-2.04-3.04-3.73-5.5-3.73c-4.19,0-7.15,3.23-7.15,7.42c0,4.19,2.96,7.42,7.15,7.42c2.46,0,4.65-1.69,5.5-3.73l5.69,2.69
			c-1.65,3.3-5,6.88-11.18,6.88C12.91,129.03,6.92,123.65,6.92,115.78"/>
	</g>
	<polygon class="st1" points="44.4,128.57 44.4,108.7 37.21,108.7 37.21,102.94 58.15,102.94 58.15,108.7 51.01,108.7 51.01,128.57 
			"/>
	<polygon class="st1" points="111.43,128.57 111.43,108.7 100.78,108.7 100.78,128.57 94.17,128.57 94.17,102.94 118.04,102.94 
		118.04,128.57 	"/>
	<polygon class="st1" points="126.5,128.57 126.5,102.94 133.11,102.94 133.11,118.04 143.49,102.94 150.33,102.94 150.33,128.57 
		143.68,128.57 143.68,112.74 132.88,128.57 	"/>
	<polygon class="st1" points="176.04,128.57 176.04,118.27 165.4,118.27 165.4,128.57 158.79,128.57 158.79,102.94 165.4,102.94 
		165.4,112.51 176.04,112.51 176.04,102.94 182.65,102.94 182.65,128.57 	"/>
	<g>
		<path class="st1" d="M210.48,115.78c0-4.19-2.73-7.42-6.96-7.42c-4.27,0-6.99,3.23-6.99,7.42c0,4.15,2.73,7.42,6.99,7.42
			C207.76,123.19,210.48,119.93,210.48,115.78 M189.81,115.78c0-7.8,5.88-13.26,13.72-13.26c7.84,0,13.68,5.46,13.68,13.26
			c0,7.8-5.84,13.26-13.68,13.26C195.69,129.03,189.81,123.58,189.81,115.78"/>
	</g>
	<polygon class="st1" points="88.44,102.94 80.99,102.94 75.41,114.93 69.88,102.94 62.42,102.94 71.76,121.42 68.38,128.6 
		75.45,128.62 80.56,118.56 80.54,118.56 	"/>
	<polygon class="st1" points="19.78,160.75 15.37,154.41 14.23,155.83 14.23,160.75 9.88,160.75 9.88,143.91 14.23,143.91 
		14.23,150.83 19.41,143.91 24.76,143.91 18.22,151.79 25.11,160.75 	"/>
	<g>
		<path class="st1" d="M51.93,155.57c0-0.83-0.61-1.51-1.67-1.51h-4.37v3.03h4.37C51.29,157.09,51.93,156.48,51.93,155.57
			 M51.6,148.96c0-0.81-0.61-1.39-1.49-1.39h-4.22v2.8h4.22C50.99,150.37,51.6,149.79,51.6,148.96 M41.55,160.75v-16.84h9.55
			c3.33,0,4.92,2.17,4.92,4.29c0,2.1-1.29,3.51-2.88,3.86c1.79,0.28,3.21,1.99,3.21,4.12c0,2.45-1.64,4.57-4.95,4.57H41.55z"/>
	</g>
	<path class="st1" d="M81.14,148.2l-2.15,6.34h4.29L81.14,148.2z M85.3,160.75l-0.83-2.42h-6.64L77,160.75h-4.92l6.34-16.84h5.45
		l6.36,16.84H85.3z"/>
	<g>
		<path class="st1" d="M149.24,149.51c0-1.16-0.86-1.82-2.02-1.82h-3.51v3.61h3.51C148.38,151.31,149.24,150.65,149.24,149.51
			 M139.36,160.75v-16.84h8.43c3.79,0,5.86,2.55,5.86,5.61c0,3.03-2.07,5.58-5.86,5.58h-4.09v5.66H139.36z"/>
	</g>
	<path class="st1" d="M176.2,148.2l-2.15,6.34h4.29L176.2,148.2z M180.37,160.75l-0.83-2.42h-6.64l-0.83,2.42h-4.93l6.34-16.84h5.45
		l6.36,16.84H180.37z"/>
	<polygon class="st1" points="203.87,160.75 203.87,147.7 199.15,147.7 199.15,143.91 212.91,143.91 212.91,147.7 208.22,147.7 
		208.22,160.75 	"/>
	<path class="st1" d="M111.74,154.54l2.15-6.34l2.15,6.34l0.77,2.47h-5.82L111.74,154.54z M121.56,157.01l-4.95-13.1h-5.45
		l-4.93,13.1h-2.18v3.75h0.77h4.92h8.31h4.92h0.77v-3.75H121.56z"/>
	<line class="st2" x1="94.71" y1="48.44" x2="213.25" y2="48.44"/>
	<g>
		<path class="st1" d="M100.11,63.07c0-1.33-0.82-2.38-2.36-2.38h-1.35v4.75h1.35C99.25,65.43,100.11,64.36,100.11,63.07 M95.2,66.5
			v-6.87h2.55c2.14,0,3.6,1.42,3.6,3.44c0,2.02-1.45,3.43-3.6,3.43H95.2z"/>
	</g>
	<polygon class="st1" points="104.57,66.5 104.57,59.63 109.27,59.63 109.27,60.69 105.77,60.69 105.77,62.47 109.2,62.47 
		109.2,63.53 105.77,63.53 105.77,65.43 109.27,65.43 109.27,66.5 	"/>
	<polygon class="st1" points="114.54,66.5 111.84,59.63 113.21,59.63 115.29,65.19 117.37,59.63 118.74,59.63 116.05,66.5 	"/>
	<polygon class="st1" points="121.55,66.5 121.55,59.63 126.26,59.63 126.26,60.69 122.75,60.69 122.75,62.47 126.18,62.47 
		126.18,63.53 122.75,63.53 122.75,65.43 126.26,65.43 126.26,66.5 	"/>
	<polygon class="st1" points="129.55,66.5 129.55,59.63 130.75,59.63 130.75,65.43 133.78,65.43 133.78,66.5 	"/>
	<g>
		<path class="st1" d="M142.1,63.07c0-1.42-0.9-2.48-2.28-2.48c-1.39,0-2.28,1.06-2.28,2.48c0,1.41,0.89,2.48,2.28,2.48
			C141.2,65.55,142.1,64.48,142.1,63.07 M136.31,63.07c0-2.05,1.45-3.55,3.51-3.55c2.06,0,3.51,1.5,3.51,3.55
			c0,2.05-1.45,3.55-3.51,3.55C137.76,66.62,136.31,65.12,136.31,63.07"/>
		<path class="st1" d="M150.58,61.78c0-0.66-0.49-1.09-1.17-1.09h-1.65v2.18h1.65C150.08,62.87,150.58,62.44,150.58,61.78
			 M146.55,66.5v-6.87h3.02c1.44,0,2.25,0.99,2.25,2.15c0,1.16-0.81,2.15-2.25,2.15h-1.81v2.56H146.55z"/>
	</g>
	<polygon class="st1" points="154.87,66.5 154.87,59.63 159.57,59.63 159.57,60.69 156.07,60.69 156.07,62.47 159.5,62.47 
		159.5,63.53 156.07,63.53 156.07,65.43 159.57,65.43 159.57,66.5 	"/>
	<g>
		<path class="st1" d="M167.77,63.07c0-1.33-0.82-2.38-2.36-2.38h-1.35v4.75h1.35C166.91,65.43,167.77,64.36,167.77,63.07
			 M162.86,66.5v-6.87h2.55c2.14,0,3.6,1.42,3.6,3.44c0,2.02-1.45,3.43-3.6,3.43H162.86z"/>
		<path class="st1" d="M99.43,76.83c0-0.52-0.36-0.95-1.05-0.95h-1.98v1.91h1.98C99.04,77.79,99.43,77.42,99.43,76.83 M99.3,73.93
			c0-0.52-0.35-0.9-0.97-0.9h-1.93v1.78h1.93C98.95,74.82,99.3,74.45,99.3,73.93 M95.2,78.85v-6.87h3.38c1.26,0,1.96,0.78,1.96,1.75
			c0,0.86-0.56,1.44-1.2,1.58c0.73,0.11,1.33,0.84,1.33,1.69c0,1.06-0.71,1.85-2,1.85H95.2z"/>
	</g>
	<polygon class="st1" points="105.57,78.85 105.57,75.99 102.9,71.98 104.28,71.98 106.17,74.92 108.05,71.98 109.43,71.98 
		106.77,75.99 106.77,78.85 	"/>
	<g>
		<path class="st1" d="M116.47,75.42c0-2.18,1.67-3.55,3.72-3.55c1.54,0,2.46,0.81,2.93,1.67l-1.48,0.77
			c-0.26-0.45-0.78-0.88-1.45-0.88c-1.12,0-1.92,0.87-1.92,1.99c0,1.12,0.79,1.99,1.92,1.99c0.5,0,1.02-0.21,1.27-0.41v-0.54h-1.55
			V74.9h3.32v2.73c-0.74,0.81-1.74,1.34-3.04,1.34C118.14,78.97,116.47,77.6,116.47,75.42"/>
		<path class="st1" d="M131.42,75.41c0-1.06-0.64-1.88-1.9-1.88h-1.12v3.78h1.11C130.72,77.3,131.42,76.43,131.42,75.41
			 M126.63,78.85v-6.87h2.88c2.16,0,3.72,1.3,3.72,3.43c0,2.13-1.56,3.44-3.71,3.44H126.63z"/>
		<path class="st1" d="M140.51,74.26c0-0.47-0.35-0.74-0.82-0.74h-1.43v1.47h1.43C140.16,74.99,140.51,74.73,140.51,74.26
			 M136.48,78.85v-6.87h3.44c1.55,0,2.39,1.04,2.39,2.29c0,1.24-0.84,2.28-2.39,2.28h-1.67v2.31H136.48z"/>
		<path class="st1" d="M154.2,77.36l-0.63-0.76l1.22-0.99l0.65,0.78c0.13-0.29,0.22-0.62,0.22-0.98c0-1.12-0.73-1.99-1.86-1.99
			c-1.14,0-1.87,0.87-1.87,1.99c0,1.11,0.73,1.99,1.87,1.99C153.93,77.4,154.06,77.39,154.2,77.36 M150.12,75.42
			c0-2.09,1.57-3.55,3.68-3.55s3.67,1.46,3.67,3.55c0,0.95-0.32,1.77-0.87,2.38l0.43,0.53l-1.24,0.99l-0.5-0.62
			c-0.45,0.18-0.96,0.28-1.49,0.28C151.7,78.97,150.12,77.51,150.12,75.42"/>
		<path class="st1" d="M160.72,76.06v-4.09h1.8V76c0,0.81,0.48,1.4,1.45,1.4c0.95,0,1.44-0.59,1.44-1.4v-4.03h1.79v4.08
			c0,1.71-1.04,2.92-3.23,2.92C161.76,78.97,160.72,77.75,160.72,76.06"/>
	</g>
	<path class="st1" d="M173.39,73.73l-0.88,2.58h1.75L173.39,73.73z M175.09,78.85l-0.34-0.99h-2.71l-0.34,0.99h-2.01l2.58-6.87h2.23
		l2.6,6.87H175.09z"/>
	<g>
		<path class="st1" d="M184.76,75.41c0-1.06-0.64-1.88-1.9-1.88h-1.12v3.78h1.11C184.06,77.3,184.76,76.43,184.76,75.41
			 M179.97,78.85v-6.87h2.88c2.16,0,3.72,1.3,3.72,3.43c0,2.13-1.56,3.44-3.71,3.44H179.97z"/>
		<path class="st1" d="M193.85,74.25c0-0.46-0.39-0.73-0.85-0.73h-1.4v1.47h1.4C193.45,74.99,193.85,74.74,193.85,74.25
			 M193.65,78.85l-1.15-2.31h-0.91v2.31h-1.77v-6.87h3.44c1.52,0,2.39,1.01,2.39,2.29c0,1.19-0.73,1.83-1.37,2.06l1.4,2.52H193.65z"
			/>
	</g>
	<path class="st1" d="M201.95,73.73l-0.88,2.58h1.75L201.95,73.73z M203.65,78.85l-0.34-0.99h-2.71l-0.34,0.99h-2.01l2.58-6.87h2.23
		l2.6,6.87H203.65z"/>
	<polygon class="st1" points="209.43,78.85 209.43,73.52 207.5,73.52 207.5,71.98 213.11,71.98 213.11,73.52 211.2,73.52 
		211.2,78.85 	"/>
	<g>
		<path class="st1" d="M100.68,10.16c0-1.42-0.9-2.48-2.28-2.48c-1.39,0-2.28,1.06-2.28,2.48c0,1.41,0.89,2.48,2.28,2.48
			C99.79,12.64,100.68,11.57,100.68,10.16 M94.89,10.16c0-2.05,1.45-3.55,3.51-3.55c2.06,0,3.51,1.5,3.51,3.55
			c0,2.05-1.45,3.55-3.51,3.55C96.35,13.72,94.89,12.21,94.89,10.16"/>
		<path class="st1" d="M104.83,10.16c0-2.11,1.57-3.55,3.6-3.55c1.39,0,2.25,0.72,2.76,1.55l-1.03,0.53c-0.33-0.57-0.99-1-1.73-1
			c-1.36,0-2.37,1.04-2.37,2.48c0,1.44,1.01,2.48,2.37,2.48c0.74,0,1.4-0.42,1.73-1l1.03,0.53c-0.52,0.82-1.37,1.55-2.76,1.55
			C106.4,13.72,104.83,12.27,104.83,10.16"/>
		<path class="st1" d="M119.69,10.16c0-1.42-0.9-2.48-2.28-2.48c-1.39,0-2.28,1.06-2.28,2.48c0,1.41,0.89,2.48,2.28,2.48
			C118.79,12.64,119.69,11.57,119.69,10.16 M113.9,10.16c0-2.05,1.45-3.55,3.51-3.55c2.06,0,3.51,1.5,3.51,3.55
			c0,2.05-1.45,3.55-3.51,3.55C115.36,13.72,113.9,12.21,113.9,10.16"/>
		<path class="st1" d="M125.35,10.35v2.18H127c0.68,0,1.17-0.43,1.17-1.09c0-0.66-0.49-1.09-1.17-1.09H125.35z M128.85,6.72v1.06
			h-3.5v1.5h1.81c1.43,0,2.25,0.99,2.25,2.15c0,1.16-0.8,2.15-2.25,2.15h-3.02V6.72H128.85z"/>
	</g>
	<path class="st1" d="M135.19,7.94l-1.24,3.27h2.47L135.19,7.94z M137.27,13.59l-0.5-1.32h-3.15l-0.51,1.32h-1.37l2.7-6.87h1.5
		l2.7,6.87H137.27z"/>
	<g>
		<path class="st1" d="M145.25,9.97V7.78h-1.65c-0.68,0-1.17,0.43-1.17,1.09c0,0.66,0.49,1.09,1.17,1.09H145.25z M141.14,13.59
			l1.68-2.7c-0.82-0.13-1.63-0.79-1.63-2.02c0-1.27,0.89-2.15,2.25-2.15h3.02v6.87h-1.2v-2.56h-1.19l-1.53,2.56H141.14z"/>
		<path class="st1" d="M94.71,24.52L95.74,24c0.33,0.58,0.99,1,1.73,1c1.21,0,2.14-0.82,2.33-2.02h-3.67v-1.06h3.65
			c-0.24-1.12-1.14-1.88-2.31-1.88c-0.74,0-1.4,0.43-1.73,1l-1.03-0.52c0.52-0.82,1.37-1.55,2.76-1.55c2.03,0,3.6,1.44,3.6,3.55
			c0,2.11-1.58,3.55-3.6,3.55C96.08,26.07,95.23,25.35,94.71,24.52"/>
	</g>
	<polygon class="st1" points="108.39,25.94 106.08,23.05 105.48,23.75 105.48,25.94 104.28,25.94 104.28,19.07 105.48,19.07 
		105.48,22.35 108.17,19.07 109.67,19.07 106.87,22.32 109.87,25.94 	"/>
	<g>
		<path class="st1" d="M117.69,22.51c0-1.42-0.9-2.48-2.28-2.48c-1.39,0-2.28,1.06-2.28,2.48c0,1.41,0.89,2.48,2.28,2.48
			C116.8,25,117.69,23.92,117.69,22.51 M111.91,22.51c0-2.05,1.45-3.55,3.51-3.55c2.06,0,3.51,1.5,3.51,3.55
			c0,2.05-1.45,3.55-3.51,3.55C113.36,26.07,111.91,24.56,111.91,22.51"/>
	</g>
	<polygon class="st1" points="126.93,25.94 126.93,22.95 123.35,22.95 123.35,25.94 122.15,25.94 122.15,19.07 123.35,19.07 
		123.35,21.89 126.93,21.89 126.93,19.07 128.13,19.07 128.13,25.94 	"/>
	<g>
		<path class="st1" d="M137.13,22.51c0-1.42-0.9-2.48-2.28-2.48c-1.39,0-2.28,1.06-2.28,2.48c0,1.41,0.89,2.48,2.28,2.48
			C136.23,25,137.13,23.92,137.13,22.51 M131.34,22.51c0-2.05,1.45-3.55,3.51-3.55c2.06,0,3.51,1.5,3.51,3.55
			c0,2.05-1.45,3.55-3.51,3.55C132.79,26.07,131.34,24.56,131.34,22.51"/>
	</g>
	<polygon class="st1" points="147.51,25.94 147.51,20.84 145.4,25.94 144.88,25.94 142.78,20.84 142.78,25.94 141.58,25.94 
		141.58,19.07 143.28,19.07 145.14,23.6 147.02,19.07 148.72,19.07 148.72,25.94 	"/>
	<polygon class="st1" points="152.23,25.94 152.23,19.07 153.44,19.07 153.44,23.84 156.95,19.07 158.18,19.07 158.18,25.94 
		156.98,25.94 156.98,21.04 153.4,25.94 	"/>
	<g>
		<path class="st1" d="M162.71,20.9c0,0.99,0.48,1.42,1.39,1.42c0.54,0,1.04-0.1,1.43-0.26v-2.99h1.21v6.87h-1.21v-2.82
			c-0.4,0.14-0.99,0.26-1.55,0.26c-1.69,0-2.47-0.99-2.47-2.48v-1.82h1.21V20.9z"/>
	</g>
	<polygon class="st1" points="170.25,25.94 170.25,19.07 174.96,19.07 174.96,20.13 171.46,20.13 171.46,21.92 174.89,21.92 
		174.89,22.98 171.46,22.98 171.46,24.88 174.96,24.88 174.96,25.94 	"/>
	<g>
		<path class="st1" d="M177.94,22.51c0-2.11,1.57-3.55,3.6-3.55c1.39,0,2.24,0.72,2.76,1.55l-1.03,0.53c-0.33-0.57-0.99-1-1.73-1
			c-1.36,0-2.37,1.04-2.37,2.48c0,1.44,1.01,2.48,2.37,2.48c0.74,0,1.4-0.42,1.73-1l1.03,0.53c-0.53,0.82-1.37,1.55-2.76,1.55
			C179.52,26.07,177.94,24.62,177.94,22.51"/>
	</g>
	<polygon class="st1" points="191.44,25.94 189.13,23.05 188.53,23.75 188.53,25.94 187.33,25.94 187.33,19.07 188.53,19.07 
		188.53,22.35 191.22,19.07 192.71,19.07 189.92,22.32 192.92,25.94 	"/>
	<path class="st1" d="M198.51,20.29l-1.24,3.27h2.47L198.51,20.29z M200.59,25.94l-0.5-1.32h-3.15l-0.51,1.32h-1.37l2.7-6.87h1.5
		l2.7,6.87H200.59z"/>
	<g>
		<path class="st1" d="M208.56,22.32v-2.18h-1.65c-0.68,0-1.17,0.43-1.17,1.09c0,0.66,0.49,1.09,1.17,1.09H208.56z M204.45,25.94
			l1.68-2.7c-0.82-0.13-1.63-0.79-1.63-2.02c0-1.27,0.89-2.15,2.25-2.15h3.02v6.87h-1.2v-2.56h-1.19l-1.52,2.56H204.45z"/>
		<path class="st1" d="M94.72,37.31l0.65-0.79c0.44,0.51,1.3,0.83,2.03,0.83c0.98,0,1.56-0.41,1.56-1.05c0-0.68-0.61-0.97-1.66-0.97
			h-1.38v-1.06h1.38c0.87,0,1.55-0.28,1.55-0.91c0-0.64-0.68-0.97-1.53-0.97c-0.7,0-1.4,0.27-1.89,0.76l-0.62-0.75
			c0.53-0.62,1.48-1.08,2.63-1.08c1.48,0,2.62,0.7,2.62,1.85c0,0.92-0.78,1.45-1.49,1.58c0.67,0.06,1.59,0.61,1.59,1.67
			c0,1.16-1.13,2-2.72,2C96.21,38.42,95.18,37.92,94.72,37.31"/>
		<path class="st1" d="M108.91,34.86c0-1.42-0.9-2.48-2.28-2.48c-1.39,0-2.28,1.06-2.28,2.48c0,1.41,0.89,2.48,2.28,2.48
			C108.01,37.35,108.91,36.28,108.91,34.86 M103.12,34.86c0-2.05,1.45-3.55,3.51-3.55c2.06,0,3.51,1.5,3.51,3.55
			c0,2.05-1.45,3.55-3.51,3.55C104.57,38.42,103.12,36.91,103.12,34.86"/>
	</g>
	<polygon class="st1" points="118.14,38.29 118.14,35.3 114.56,35.3 114.56,38.29 113.36,38.29 113.36,31.42 114.56,31.42 
		114.56,34.24 118.14,34.24 118.14,31.42 119.34,31.42 119.34,38.29 	"/>
	<path class="st1" d="M125.59,32.64l-1.24,3.27h2.47L125.59,32.64z M127.67,38.29l-0.5-1.32h-3.15l-0.51,1.32h-1.37l2.7-6.87h1.5
		l2.7,6.87H127.67z"/>
	<g>
		<rect x="7.03" y="6.3" class="st3" width="36.59" height="36.27"/>
		<rect x="7.03" y="42.57" class="st4" width="36.59" height="36.27"/>
		<rect x="43.63" y="6.3" class="st5" width="36.59" height="36.27"/>
		<rect x="43.63" y="42.57" class="st1" width="36.59" height="36.27"/>
	</g>
</g>
</svg>
